<svg width="32" height="32" viewBox="0 0 32 32" fill="none" xmlns="http://www.w3.org/2000/svg">
  <!-- Background -->
  <rect width="32" height="32" rx="6" fill="#1f2937"/>
  
  <!-- Trading chart line -->
  <path d="M4 24 L8 20 L12 22 L16 16 L20 18 L24 12 L28 14" stroke="#10b981" stroke-width="2.5" stroke-linecap="round" stroke-linejoin="round"/>
  
  <!-- Chart points -->
  <circle cx="8" cy="20" r="2" fill="#10b981"/>
  <circle cx="16" cy="16" r="2" fill="#10b981"/>
  <circle cx="24" cy="12" r="2" fill="#10b981"/>
  
  <!-- Alert bell -->
  <path d="M24 6 C24.5 6 25 6.5 25 7 L25 9 C25 9.5 24.5 10 24 10 L22 10 C21.5 10 21 9.5 21 9 L21 7 C21 6.5 21.5 6 22 6 L24 6 Z" fill="#f59e0b"/>
  
  <!-- Alert dot -->
  <circle cx="26" cy="4" r="2" fill="#ef4444"/>
</svg>